<?xml version="1.0" encoding="UTF-8"?>
<svg xmlns="http://www.w3.org/2000/svg" xmlns:xlink="http://www.w3.org/1999/xlink" width="150px" height="150px" viewBox="0 0 150 150" version="1.1">
<g id="surface1">
<path style=" stroke:none;fill-rule:nonzero;fill:rgb(0%,0%,0%);fill-opacity:1;" d="M 116.65625 47.789062 C 116.535156 47.886719 116.386719 48.015625 116.316406 48.074219 C 116.0625 48.300781 115.828125 48.503906 115.425781 48.824219 C 115.199219 49.011719 114.976562 49.191406 114.929688 49.238281 C 113.984375 50.046875 112.933594 50.933594 112.613281 51.1875 C 112.453125 51.308594 112.289062 51.449219 112.246094 51.488281 C 112.125 51.609375 110.625 52.875 110.265625 53.160156 C 109.941406 53.421875 109.746094 53.585938 109.410156 53.894531 C 109.296875 53.992188 109.183594 54.074219 109.164062 54.074219 C 109.140625 54.074219 109.042969 54.15625 108.945312 54.261719 C 108.847656 54.367188 108.75 54.449219 108.734375 54.449219 C 108.710938 54.449219 108.570312 54.570312 108.414062 54.71875 C 108.253906 54.871094 107.902344 55.171875 107.632812 55.386719 C 107.363281 55.605469 107.046875 55.859375 106.933594 55.957031 C 106.648438 56.21875 106.410156 56.414062 106.035156 56.707031 C 105.863281 56.851562 105.660156 57.015625 105.601562 57.082031 C 105.539062 57.148438 105.285156 57.367188 105.039062 57.5625 C 104.796875 57.757812 104.558594 57.960938 104.511719 58.003906 C 104.460938 58.050781 104.28125 58.207031 104.101562 58.351562 C 103.921875 58.492188 103.628906 58.734375 103.460938 58.875 C 103.289062 59.015625 102.984375 59.273438 102.789062 59.4375 C 102.585938 59.601562 102.335938 59.8125 102.238281 59.910156 C 102.136719 60 101.953125 60.15625 101.835938 60.246094 C 101.558594 60.457031 101.4375 60.554688 100.90625 61.011719 C 100.117188 61.6875 99.855469 61.914062 99.539062 62.167969 C 99.367188 62.300781 99.226562 62.453125 99.226562 62.484375 C 99.226562 62.519531 106.925781 62.550781 116.886719 62.550781 C 135.609375 62.550781 134.878906 62.566406 134.386719 62.226562 C 134.289062 62.167969 134.128906 62.039062 134.023438 61.941406 C 133.921875 61.84375 133.648438 61.613281 133.433594 61.425781 C 133.214844 61.238281 132.960938 61.027344 132.871094 60.953125 C 132.789062 60.871094 132.5625 60.691406 132.382812 60.539062 C 132.195312 60.382812 131.925781 60.15625 131.78125 60.03125 C 131.484375 59.773438 131.386719 59.691406 130.574219 59.015625 C 130.265625 58.761719 129.996094 58.53125 129.976562 58.507812 C 129.953125 58.476562 129.601562 58.171875 129.1875 57.824219 C 128.308594 57.089844 127.695312 56.574219 127.453125 56.363281 C 127.359375 56.28125 127.140625 56.09375 126.960938 55.949219 C 126.789062 55.808594 126.539062 55.597656 126.425781 55.476562 C 126.308594 55.363281 126.195312 55.273438 126.171875 55.273438 C 126.148438 55.273438 125.96875 55.132812 125.78125 54.953125 C 125.585938 54.78125 125.296875 54.523438 125.121094 54.390625 C 124.949219 54.246094 124.738281 54.082031 124.664062 54.015625 C 124.582031 53.941406 124.359375 53.753906 124.164062 53.585938 C 123.96875 53.421875 123.734375 53.21875 123.644531 53.136719 C 123.554688 53.046875 123.308594 52.84375 123.105469 52.6875 C 122.902344 52.523438 122.699219 52.351562 122.65625 52.3125 C 122.347656 52.035156 120.847656 50.761719 120.300781 50.308594 C 120.195312 50.21875 119.976562 50.03125 119.8125 49.882812 C 119.648438 49.734375 119.378906 49.507812 119.21875 49.386719 C 119.054688 49.261719 118.867188 49.109375 118.800781 49.050781 C 118.738281 48.988281 118.5 48.789062 118.273438 48.601562 C 118.050781 48.414062 117.847656 48.246094 117.824219 48.226562 C 117.546875 47.941406 117.121094 47.625 117.007812 47.625 C 116.933594 47.625 116.773438 47.699219 116.65625 47.789062 Z M 116.65625 47.789062 "/>
<path style=" stroke:none;fill-rule:nonzero;fill:rgb(0%,0%,0%);fill-opacity:1;" d="M 55.246094 64.738281 C 55.15625 65.378906 53.476562 80.339844 53.476562 80.519531 L 53.476562 80.699219 L 55.640625 80.699219 L 55.679688 80.378906 C 55.726562 80.0625 55.875 78.140625 55.875 77.953125 C 55.875 77.871094 56.011719 77.851562 56.429688 77.851562 L 56.976562 77.851562 L 57.03125 78.195312 C 57.050781 78.390625 57.074219 78.855469 57.074219 79.230469 C 57.074219 79.605469 57.097656 80.09375 57.121094 80.300781 L 57.171875 80.699219 L 59.414062 80.699219 L 59.371094 80.339844 C 59.339844 80.144531 58.972656 76.597656 58.539062 72.449219 C 58.101562 68.300781 57.734375 64.800781 57.710938 64.664062 L 57.667969 64.425781 L 55.289062 64.425781 Z M 56.585938 69.90625 C 56.648438 71.371094 56.738281 73.148438 56.773438 73.867188 C 56.820312 74.578125 56.851562 75.277344 56.851562 75.421875 L 56.851562 75.675781 L 56.023438 75.675781 L 56.023438 75.351562 C 56.023438 75.179688 56.078125 74.226562 56.136719 73.238281 C 56.199219 72.246094 56.265625 70.761719 56.289062 69.9375 C 56.332031 68.28125 56.398438 67.171875 56.445312 67.222656 C 56.460938 67.238281 56.527344 68.445312 56.585938 69.90625 Z M 56.585938 69.90625 "/>
<path style=" stroke:none;fill-rule:nonzero;fill:rgb(0%,0%,0%);fill-opacity:1;" d="M 95.601562 64.53125 C 94.769531 64.835938 94.125 65.804688 93.710938 67.371094 C 92.976562 70.175781 93 75.457031 93.757812 78.039062 C 94.164062 79.441406 94.605469 80.210938 95.210938 80.585938 C 95.535156 80.789062 95.640625 80.8125 96.15625 80.8125 C 96.691406 80.8125 96.765625 80.789062 97.066406 80.578125 C 97.898438 79.972656 98.496094 78.53125 98.828125 76.363281 C 99.023438 75.089844 99.023438 70.433594 98.828125 69.074219 C 98.484375 66.644531 97.808594 65.113281 96.878906 64.640625 C 96.496094 64.449219 95.953125 64.394531 95.601562 64.53125 Z M 96.511719 68.234375 C 96.621094 68.738281 96.636719 69.324219 96.636719 72.601562 C 96.636719 76.589844 96.609375 77.054688 96.285156 77.886719 L 96.121094 78.316406 L 95.976562 77.949219 C 95.558594 76.890625 95.414062 74.578125 95.542969 71.128906 C 95.632812 68.640625 95.691406 68.109375 95.941406 67.441406 L 96.097656 67.011719 L 96.238281 67.335938 C 96.324219 67.515625 96.441406 67.921875 96.511719 68.234375 Z M 96.511719 68.234375 "/>
<path style=" stroke:none;fill-rule:nonzero;fill:rgb(0%,0%,0%);fill-opacity:1;" d="M 58.6875 64.816406 C 58.746094 65.183594 60.75 80.617188 60.75 80.746094 C 60.75 80.828125 60.929688 80.851562 61.726562 80.851562 C 62.519531 80.851562 62.699219 80.828125 62.699219 80.746094 C 62.699219 80.683594 63.121094 77.109375 63.636719 72.800781 C 64.15625 68.488281 64.574219 64.875 64.574219 64.769531 L 64.574219 64.574219 L 62.339844 64.574219 L 62.296875 65.078125 C 62.273438 65.363281 62.144531 67.074219 62.023438 68.886719 C 61.90625 70.703125 61.777344 72.40625 61.746094 72.675781 C 61.710938 73.066406 61.636719 72.367188 61.34375 69.039062 C 61.148438 66.765625 60.984375 64.835938 60.984375 64.738281 C 60.976562 64.574219 60.96875 64.574219 59.8125 64.574219 L 58.640625 64.574219 Z M 58.6875 64.816406 "/>
<path style=" stroke:none;fill-rule:nonzero;fill:rgb(0%,0%,0%);fill-opacity:1;" d="M 68.476562 72.636719 L 68.476562 80.699219 L 69.398438 80.699219 C 70.800781 80.699219 71.496094 80.453125 72.21875 79.726562 C 72.742188 79.183594 73.078125 78.628906 73.410156 77.753906 C 74.339844 75.292969 74.429688 70.859375 73.613281 68.25 C 73.132812 66.734375 72.238281 65.488281 71.296875 65.023438 C 70.703125 64.734375 69.953125 64.574219 69.136719 64.574219 L 68.476562 64.574219 Z M 71.015625 67.734375 C 71.476562 68.347656 71.671875 69.253906 71.789062 71.300781 C 71.894531 73.066406 71.789062 75.359375 71.550781 76.335938 C 71.378906 77.039062 71.128906 77.578125 70.84375 77.84375 L 70.648438 78.023438 L 70.648438 72.726562 C 70.648438 67.035156 70.636719 67.214844 71.015625 67.734375 Z M 71.015625 67.734375 "/>
<path style=" stroke:none;fill-rule:nonzero;fill:rgb(0%,0%,0%);fill-opacity:1;" d="M 75 72.636719 L 75 80.699219 L 78.75 80.699219 L 78.75 78.523438 L 77.175781 78.523438 L 77.175781 73.949219 L 78.75 73.949219 L 78.75 71.773438 L 77.175781 71.773438 L 77.175781 66.75 L 78.75 66.75 L 78.75 64.574219 L 75 64.574219 Z M 75 72.636719 "/>
<path style=" stroke:none;fill-rule:nonzero;fill:rgb(0%,0%,0%);fill-opacity:1;" d="M 79.011719 64.816406 C 79.074219 65.183594 81.074219 80.617188 81.074219 80.746094 C 81.074219 80.828125 81.253906 80.851562 82.050781 80.851562 C 82.84375 80.851562 83.023438 80.828125 83.023438 80.746094 C 83.023438 80.683594 83.445312 77.109375 83.960938 72.800781 C 84.480469 68.488281 84.898438 64.875 84.898438 64.769531 L 84.898438 64.574219 L 82.664062 64.574219 L 82.621094 65.078125 C 82.597656 65.363281 82.46875 67.074219 82.351562 68.886719 C 82.230469 70.703125 82.101562 72.40625 82.074219 72.675781 C 82.035156 73.066406 81.960938 72.367188 81.667969 69.039062 C 81.472656 66.765625 81.308594 64.835938 81.308594 64.738281 C 81.300781 64.574219 81.292969 64.574219 80.136719 64.574219 L 78.96875 64.574219 Z M 79.011719 64.816406 "/>
<path style=" stroke:none;fill-rule:nonzero;fill:rgb(0%,0%,0%);fill-opacity:1;" d="M 85.5 72.636719 L 85.5 80.699219 L 89.25 80.699219 L 89.25 78.523438 L 87.675781 78.523438 L 87.675781 73.949219 L 89.25 73.949219 L 89.25 71.773438 L 87.675781 71.773438 L 87.675781 66.75 L 89.25 66.75 L 89.25 64.574219 L 85.5 64.574219 Z M 85.5 72.636719 "/>
<path style=" stroke:none;fill-rule:nonzero;fill:rgb(0%,0%,0%);fill-opacity:1;" d="M 89.925781 72.636719 L 89.925781 80.699219 L 93.375 80.699219 L 93.375 78.523438 L 92.101562 78.523438 L 92.101562 64.574219 L 89.925781 64.574219 Z M 89.925781 72.636719 "/>
<path style=" stroke:none;fill-rule:nonzero;fill:rgb(0%,0%,0%);fill-opacity:1;" d="M 99.898438 72.636719 L 99.898438 80.699219 L 102.074219 80.699219 L 102.074219 77.363281 C 102.074219 74.347656 102.089844 74.023438 102.195312 74.023438 C 102.261719 74.023438 102.601562 73.890625 102.953125 73.726562 C 104.535156 72.988281 105.449219 71.363281 105.449219 69.300781 C 105.449219 67.84375 104.992188 66.601562 104.128906 65.722656 C 103.351562 64.925781 102.285156 64.574219 100.640625 64.574219 L 99.898438 64.574219 Z M 102.773438 67.777344 C 103.027344 68.265625 103.15625 68.960938 103.101562 69.621094 C 103.042969 70.386719 102.871094 70.816406 102.441406 71.273438 L 102.082031 71.664062 L 102.074219 69.351562 L 102.074219 67.042969 L 102.324219 67.230469 C 102.464844 67.335938 102.660156 67.582031 102.773438 67.777344 Z M 102.773438 67.777344 "/>
<path style=" stroke:none;fill-rule:nonzero;fill:rgb(0%,0%,0%);fill-opacity:1;" d="M 107.699219 64.648438 C 107.699219 64.6875 107.332031 68.265625 106.875 72.601562 C 106.425781 76.925781 106.050781 80.527344 106.050781 80.585938 C 106.050781 80.683594 106.214844 80.699219 107.121094 80.699219 L 108.195312 80.699219 L 108.441406 77.300781 C 108.578125 75.441406 108.710938 73.824219 108.742188 73.703125 C 108.773438 73.574219 108.976562 74.871094 109.273438 77.101562 L 109.761719 80.699219 L 110.59375 80.699219 L 111.113281 77.136719 C 111.40625 75.179688 111.652344 73.574219 111.675781 73.574219 C 111.699219 73.574219 111.808594 75.039062 111.921875 76.816406 C 112.042969 78.601562 112.15625 80.203125 112.175781 80.378906 L 112.214844 80.699219 L 114.375 80.699219 L 114.375 80.414062 C 114.367188 80.265625 114.023438 76.640625 113.601562 72.375 L 112.828125 64.613281 L 111.921875 64.589844 L 111.007812 64.566406 L 110.96875 64.816406 C 110.949219 64.949219 110.773438 66.800781 110.585938 68.925781 C 110.398438 71.046875 110.242188 72.816406 110.242188 72.863281 C 110.226562 72.960938 109.582031 65.0625 109.582031 64.777344 L 109.574219 64.574219 L 108.636719 64.574219 C 108.089844 64.574219 107.699219 64.605469 107.699219 64.648438 Z M 107.699219 64.648438 "/>
<path style=" stroke:none;fill-rule:nonzero;fill:rgb(0%,0%,0%);fill-opacity:1;" d="M 115.273438 72.636719 L 115.273438 80.699219 L 119.023438 80.699219 L 119.023438 78.523438 L 117.449219 78.523438 L 117.449219 73.949219 L 119.023438 73.949219 L 119.023438 71.773438 L 117.449219 71.773438 L 117.449219 66.75 L 119.023438 66.75 L 119.023438 64.574219 L 115.273438 64.574219 Z M 115.273438 72.636719 "/>
<path style=" stroke:none;fill-rule:nonzero;fill:rgb(0%,0%,0%);fill-opacity:1;" d="M 119.699219 72.636719 L 119.699219 80.699219 L 121.957031 80.699219 L 121.914062 79.777344 C 121.851562 78.367188 121.710938 72.140625 121.738281 72.113281 C 121.753906 72.097656 122.046875 73.828125 122.390625 75.960938 C 122.738281 78.089844 123.050781 80.03125 123.089844 80.265625 L 123.164062 80.699219 L 125.175781 80.699219 L 125.175781 64.574219 L 122.917969 64.574219 L 122.953125 65.414062 C 123.023438 66.726562 123.171875 72.898438 123.136719 72.9375 C 123.121094 72.953125 122.910156 71.730469 122.671875 70.214844 C 122.4375 68.699219 122.136719 66.808594 122.011719 66.015625 L 121.777344 64.574219 L 119.699219 64.574219 Z M 119.699219 72.636719 "/>
<path style=" stroke:none;fill-rule:nonzero;fill:rgb(0%,0%,0%);fill-opacity:1;" d="M 125.925781 65.664062 L 125.925781 66.75 L 127.425781 66.75 L 127.425781 80.699219 L 129.675781 80.699219 L 129.675781 66.75 L 131.175781 66.75 L 131.175781 64.574219 L 125.925781 64.574219 Z M 125.925781 65.664062 "/>
<path style=" stroke:none;fill-rule:nonzero;fill:rgb(0%,0%,0%);fill-opacity:1;" d="M 35.65625 65.65625 C 35.609375 65.707031 35.257812 66.457031 34.882812 67.320312 C 34.09375 69.097656 34.050781 69.210938 33.832031 69.675781 C 33.652344 70.074219 33.300781 70.859375 33.121094 71.289062 C 32.953125 71.664062 32.828125 71.949219 32.632812 72.375 C 32.550781 72.5625 32.378906 72.945312 32.25 73.238281 C 32.113281 73.523438 31.964844 73.859375 31.914062 73.988281 C 31.851562 74.109375 31.734375 74.378906 31.648438 74.585938 C 31.558594 74.789062 31.402344 75.148438 31.296875 75.375 C 31.191406 75.601562 31.058594 75.90625 30.996094 76.050781 C 30.75 76.597656 30.609375 76.921875 30.464844 77.25 C 29.421875 79.550781 29.4375 79.515625 29.585938 79.792969 C 29.699219 80.015625 29.730469 80.03125 30.097656 80.011719 C 30.546875 79.980469 30.496094 80.070312 31.351562 78.113281 C 31.441406 77.902344 31.574219 77.601562 31.65625 77.429688 C 31.734375 77.257812 31.800781 77.101562 31.800781 77.070312 C 31.800781 77.039062 31.957031 76.6875 32.144531 76.289062 C 32.496094 75.53125 32.558594 75.414062 32.886719 74.664062 C 32.992188 74.414062 33.148438 74.0625 33.238281 73.875 C 33.382812 73.546875 33.523438 73.222656 33.773438 72.675781 C 34.425781 71.191406 34.515625 70.988281 34.71875 70.566406 C 34.800781 70.378906 34.875 70.199219 34.875 70.175781 C 34.875 70.148438 35.011719 69.832031 35.175781 69.472656 C 35.859375 67.988281 35.8125 68.085938 36.335938 66.886719 L 36.691406 66.089844 L 36.5625 65.820312 C 36.441406 65.566406 36.414062 65.550781 36.082031 65.550781 C 35.894531 65.558594 35.699219 65.601562 35.65625 65.65625 Z M 35.65625 65.65625 "/>
<path style=" stroke:none;fill-rule:nonzero;fill:rgb(0%,0%,0%);fill-opacity:1;" d="M 25.613281 66.113281 C 25.492188 66.210938 25.363281 66.292969 25.335938 66.300781 C 25.304688 66.300781 25.15625 66.382812 24.996094 66.488281 C 24.839844 66.59375 24.660156 66.710938 24.601562 66.75 C 24.539062 66.789062 24.359375 66.90625 24.203125 67.011719 C 24.046875 67.117188 23.902344 67.199219 23.886719 67.199219 C 23.871094 67.199219 23.65625 67.335938 23.40625 67.5 C 23.160156 67.664062 22.933594 67.800781 22.914062 67.800781 C 22.890625 67.800781 22.828125 67.835938 22.777344 67.875 C 22.65625 67.980469 21.53125 68.699219 21.496094 68.699219 C 21.472656 68.699219 21.253906 68.835938 21.007812 69 C 20.761719 69.164062 20.535156 69.300781 20.511719 69.300781 C 20.488281 69.300781 20.429688 69.335938 20.378906 69.375 C 20.234375 69.496094 19.777344 69.789062 19.378906 70.011719 C 19.175781 70.132812 18.945312 70.28125 18.863281 70.359375 C 18.78125 70.433594 18.683594 70.492188 18.652344 70.484375 C 18.613281 70.484375 18.511719 70.546875 18.421875 70.621094 C 18.328125 70.703125 18.210938 70.769531 18.15625 70.785156 C 18.105469 70.792969 17.992188 70.867188 17.902344 70.949219 C 17.820312 71.03125 17.707031 71.101562 17.664062 71.101562 C 17.609375 71.101562 17.511719 71.167969 17.4375 71.25 C 17.371094 71.324219 17.289062 71.390625 17.257812 71.386719 C 17.191406 71.371094 16.738281 71.632812 16.5 71.828125 C 16.386719 71.925781 16.261719 72 16.230469 72 C 16.171875 72 16.011719 72.121094 15.621094 72.449219 C 15.570312 72.496094 15.523438 72.660156 15.523438 72.816406 C 15.523438 73.035156 15.578125 73.148438 15.75 73.296875 C 15.871094 73.410156 15.988281 73.5 16.011719 73.5 C 16.035156 73.5 16.296875 73.65625 16.605469 73.851562 C 16.914062 74.054688 17.386719 74.347656 17.664062 74.511719 C 17.941406 74.675781 18.210938 74.859375 18.261719 74.902344 C 18.316406 74.953125 18.382812 75 18.40625 75 C 18.433594 75 18.726562 75.179688 19.074219 75.40625 C 19.410156 75.621094 19.769531 75.847656 19.875 75.898438 C 19.980469 75.953125 20.078125 76.019531 20.101562 76.050781 C 20.121094 76.078125 20.242188 76.164062 20.363281 76.230469 C 20.488281 76.296875 20.691406 76.417969 20.8125 76.5 C 20.941406 76.582031 21.15625 76.71875 21.300781 76.800781 C 21.578125 76.964844 22.3125 77.421875 22.5 77.550781 C 23.003906 77.886719 23.191406 78 23.21875 78 C 23.242188 78 23.371094 78.082031 23.503906 78.1875 C 23.640625 78.292969 23.789062 78.375 23.828125 78.375 C 23.871094 78.375 23.949219 78.425781 24 78.488281 C 24.050781 78.554688 24.210938 78.660156 24.34375 78.71875 C 24.488281 78.789062 24.601562 78.871094 24.601562 78.90625 C 24.601562 78.945312 24.667969 78.976562 24.75 78.976562 C 24.832031 78.976562 24.898438 79.003906 24.898438 79.035156 C 24.898438 79.074219 24.988281 79.148438 25.109375 79.199219 C 25.222656 79.261719 25.386719 79.371094 25.476562 79.449219 C 25.566406 79.53125 25.792969 79.613281 25.972656 79.628906 C 26.390625 79.679688 26.625 79.484375 26.625 79.085938 C 26.625 78.878906 26.574219 78.789062 26.316406 78.585938 C 26.144531 78.449219 25.988281 78.335938 25.957031 78.335938 C 25.90625 78.328125 24.765625 77.601562 24.621094 77.476562 C 24.570312 77.4375 24.511719 77.398438 24.488281 77.398438 C 24.464844 77.398438 24.238281 77.265625 23.992188 77.101562 C 23.746094 76.933594 23.527344 76.800781 23.503906 76.800781 C 23.488281 76.800781 23.175781 76.605469 22.816406 76.371094 C 22.066406 75.871094 22.019531 75.847656 21.628906 75.613281 C 21.464844 75.523438 21.238281 75.382812 21.113281 75.300781 C 20.992188 75.21875 20.789062 75.097656 20.664062 75.03125 C 20.542969 74.960938 20.421875 74.878906 20.398438 74.851562 C 20.378906 74.820312 20.265625 74.738281 20.136719 74.671875 C 20.015625 74.601562 19.816406 74.484375 19.6875 74.398438 C 19.566406 74.316406 19.34375 74.183594 19.199219 74.101562 C 19.058594 74.015625 18.839844 73.882812 18.710938 73.800781 C 18.59375 73.71875 18.375 73.597656 18.246094 73.523438 C 18.113281 73.453125 18 73.371094 18 73.335938 C 18 73.304688 17.960938 73.273438 17.910156 73.273438 C 17.863281 73.273438 17.714844 73.191406 17.578125 73.085938 C 17.445312 72.984375 17.300781 72.898438 17.257812 72.898438 C 17.09375 72.898438 17.183594 72.78125 17.496094 72.601562 C 17.671875 72.496094 17.84375 72.398438 17.886719 72.382812 C 17.925781 72.367188 18 72.316406 18.050781 72.269531 C 18.292969 72.058594 18.359375 72.015625 18.390625 72.046875 C 18.414062 72.058594 18.488281 72.007812 18.5625 71.925781 C 18.636719 71.84375 18.734375 71.773438 18.773438 71.773438 C 18.816406 71.773438 18.960938 71.691406 19.101562 71.578125 C 19.238281 71.476562 19.351562 71.414062 19.351562 71.445312 C 19.351562 71.476562 19.425781 71.4375 19.523438 71.355469 C 19.613281 71.273438 19.777344 71.160156 19.898438 71.101562 C 20.011719 71.046875 20.101562 70.972656 20.101562 70.933594 C 20.101562 70.90625 20.152344 70.875 20.210938 70.875 C 20.28125 70.875 20.421875 70.792969 20.527344 70.695312 C 20.640625 70.589844 20.753906 70.523438 20.773438 70.539062 C 20.804688 70.558594 20.886719 70.507812 20.960938 70.425781 C 21.039062 70.34375 21.136719 70.273438 21.171875 70.273438 C 21.21875 70.273438 21.359375 70.191406 21.488281 70.085938 C 21.621094 69.988281 21.75 69.921875 21.765625 69.9375 C 21.789062 69.960938 21.863281 69.90625 21.9375 69.824219 C 22.011719 69.742188 22.109375 69.675781 22.164062 69.675781 C 22.207031 69.675781 22.3125 69.609375 22.402344 69.53125 C 22.484375 69.457031 22.648438 69.335938 22.769531 69.269531 C 22.890625 69.203125 23.09375 69.082031 23.210938 69 C 23.339844 68.917969 23.558594 68.78125 23.699219 68.699219 C 23.84375 68.617188 24.066406 68.484375 24.1875 68.398438 C 24.316406 68.316406 24.515625 68.199219 24.636719 68.128906 C 24.765625 68.0625 24.878906 67.980469 24.898438 67.949219 C 24.921875 67.921875 25.042969 67.835938 25.164062 67.769531 C 25.289062 67.703125 25.492188 67.582031 25.613281 67.5 C 25.738281 67.417969 25.941406 67.296875 26.0625 67.230469 C 26.632812 66.90625 26.773438 66.515625 26.46875 66.121094 C 26.265625 65.863281 25.921875 65.859375 25.613281 66.113281 Z M 25.613281 66.113281 "/>
<path style=" stroke:none;fill-rule:nonzero;fill:rgb(0%,0%,0%);fill-opacity:1;" d="M 39.78125 65.984375 C 39.644531 66.074219 39.523438 66.351562 39.523438 66.585938 C 39.523438 66.742188 39.59375 66.871094 39.757812 67.003906 C 39.886719 67.109375 40.011719 67.199219 40.050781 67.199219 C 40.085938 67.199219 40.164062 67.246094 40.214844 67.304688 C 40.273438 67.359375 40.417969 67.460938 40.539062 67.53125 C 40.664062 67.597656 40.867188 67.71875 40.988281 67.800781 C 41.113281 67.882812 41.332031 68.015625 41.476562 68.101562 C 41.617188 68.183594 41.84375 68.316406 41.960938 68.398438 C 42.089844 68.484375 42.285156 68.601562 42.40625 68.671875 C 42.523438 68.738281 42.660156 68.820312 42.703125 68.859375 C 42.847656 68.976562 43.359375 69.300781 43.394531 69.300781 C 43.417969 69.300781 43.546875 69.382812 43.679688 69.488281 C 43.816406 69.59375 43.957031 69.675781 44.003906 69.675781 C 44.039062 69.675781 44.136719 69.742188 44.210938 69.824219 C 44.289062 69.90625 44.371094 69.960938 44.398438 69.9375 C 44.421875 69.921875 44.535156 69.988281 44.648438 70.09375 C 44.753906 70.191406 44.894531 70.273438 44.960938 70.273438 C 45.023438 70.273438 45.074219 70.304688 45.074219 70.335938 C 45.074219 70.371094 45.164062 70.449219 45.285156 70.5 C 45.398438 70.558594 45.5625 70.671875 45.660156 70.753906 C 45.75 70.835938 45.824219 70.875 45.824219 70.84375 C 45.824219 70.816406 45.9375 70.875 46.074219 70.980469 C 46.214844 71.09375 46.359375 71.175781 46.402344 71.175781 C 46.441406 71.175781 46.539062 71.242188 46.613281 71.324219 C 46.6875 71.40625 46.761719 71.460938 46.785156 71.4375 C 46.800781 71.421875 46.925781 71.488281 47.0625 71.585938 C 47.191406 71.691406 47.339844 71.773438 47.386719 71.773438 C 47.429688 71.773438 47.476562 71.804688 47.488281 71.84375 C 47.511719 71.894531 48.140625 72.324219 48.226562 72.335938 C 48.300781 72.351562 48.96875 72.789062 48.976562 72.824219 C 48.976562 72.847656 48.78125 72.976562 48.546875 73.109375 C 47.96875 73.441406 47.308594 73.84375 47.203125 73.933594 C 47.160156 73.980469 47.023438 74.0625 46.90625 74.128906 C 46.785156 74.199219 46.589844 74.316406 46.460938 74.398438 C 46.34375 74.484375 46.117188 74.617188 45.976562 74.699219 C 45.832031 74.78125 45.613281 74.917969 45.488281 75 C 45.367188 75.082031 45.164062 75.203125 45.039062 75.269531 C 44.917969 75.335938 44.796875 75.421875 44.773438 75.449219 C 44.753906 75.480469 44.625 75.570312 44.484375 75.644531 C 44.183594 75.808594 44.121094 75.847656 43.550781 76.222656 C 43.320312 76.371094 43.101562 76.5 43.078125 76.5 C 43.066406 76.5 43.003906 76.539062 42.953125 76.574219 C 42.832031 76.679688 41.707031 77.398438 41.671875 77.398438 C 41.648438 77.398438 41.429688 77.535156 41.183594 77.699219 C 40.933594 77.863281 40.695312 78 40.648438 78 C 40.613281 78 40.574219 78.03125 40.574219 78.066406 C 40.574219 78.105469 40.507812 78.15625 40.425781 78.1875 C 40.34375 78.210938 40.109375 78.367188 39.898438 78.53125 C 39.578125 78.789062 39.523438 78.863281 39.523438 79.085938 C 39.523438 79.492188 39.757812 79.679688 40.171875 79.621094 C 40.359375 79.597656 40.574219 79.507812 40.664062 79.425781 C 40.753906 79.34375 40.867188 79.273438 40.921875 79.273438 C 40.964844 79.273438 41.046875 79.222656 41.101562 79.164062 C 41.152344 79.101562 41.289062 79.003906 41.40625 78.9375 C 41.527344 78.878906 41.722656 78.773438 41.84375 78.710938 C 41.960938 78.644531 42.097656 78.546875 42.148438 78.488281 C 42.203125 78.425781 42.285156 78.375 42.328125 78.375 C 42.382812 78.375 42.488281 78.316406 42.570312 78.238281 C 42.644531 78.164062 42.898438 78 43.125 77.863281 C 43.734375 77.503906 43.816406 77.453125 44.078125 77.273438 C 44.203125 77.175781 44.332031 77.101562 44.355469 77.101562 C 44.390625 77.101562 44.894531 76.785156 45.039062 76.664062 C 45.082031 76.636719 45.300781 76.492188 45.523438 76.363281 C 45.75 76.230469 46.085938 76.019531 46.273438 75.898438 C 46.460938 75.773438 46.664062 75.652344 46.726562 75.621094 C 46.785156 75.59375 46.875 75.53125 46.925781 75.496094 C 46.972656 75.449219 47.234375 75.277344 47.511719 75.113281 C 47.789062 74.949219 48.261719 74.65625 48.570312 74.453125 C 48.878906 74.257812 49.140625 74.101562 49.15625 74.101562 C 49.175781 74.101562 49.394531 73.964844 49.640625 73.800781 C 49.890625 73.636719 50.113281 73.5 50.136719 73.5 C 50.160156 73.5 50.28125 73.410156 50.398438 73.296875 C 50.566406 73.15625 50.625 73.035156 50.625 72.847656 C 50.625 72.539062 50.511719 72.300781 50.363281 72.300781 C 50.300781 72.300781 50.25 72.269531 50.25 72.238281 C 50.25 72.203125 50.160156 72.128906 50.046875 72.074219 C 49.925781 72.015625 49.769531 71.910156 49.6875 71.84375 C 49.605469 71.773438 49.386719 71.640625 49.199219 71.542969 C 49.011719 71.445312 48.773438 71.296875 48.667969 71.210938 C 48.414062 71.015625 47.976562 70.769531 47.917969 70.785156 C 47.886719 70.792969 47.804688 70.726562 47.738281 70.648438 C 47.664062 70.566406 47.566406 70.5 47.519531 70.5 C 47.476562 70.5 47.339844 70.417969 47.21875 70.3125 C 47.101562 70.214844 46.980469 70.148438 46.949219 70.164062 C 46.914062 70.183594 46.875 70.175781 46.859375 70.140625 C 46.835938 70.078125 46.148438 69.601562 46.078125 69.601562 C 46.042969 69.601562 44.917969 68.878906 44.796875 68.773438 C 44.746094 68.738281 44.683594 68.699219 44.664062 68.699219 C 44.640625 68.699219 44.414062 68.566406 44.167969 68.398438 C 43.921875 68.234375 43.703125 68.101562 43.679688 68.101562 C 43.664062 68.101562 43.351562 67.90625 42.988281 67.671875 C 42.238281 67.171875 42.195312 67.148438 41.804688 66.914062 C 41.640625 66.824219 41.414062 66.683594 41.289062 66.601562 C 41.167969 66.515625 40.964844 66.398438 40.835938 66.328125 C 40.71875 66.261719 40.597656 66.179688 40.574219 66.148438 C 40.449219 65.96875 39.960938 65.863281 39.78125 65.984375 Z M 39.78125 65.984375 "/>
</g>
</svg>
